<?xml version="1.0" encoding="UTF-8"?>
<svg xmlns="http://www.w3.org/2000/svg" xmlns:xlink="http://www.w3.org/1999/xlink" width="500px" height="500px" viewBox="0 0 500 500" version="1.1">
<g id="surface1">
<path style=" stroke:none;fill-rule:nonzero;fill:rgb(91.372549%,36.862745%,4.313725%);fill-opacity:1;" d="M 325.507812 277.804688 C 325.058594 316.21875 298.828125 346.828125 261.867188 353.210938 C 221.398438 360.203125 181.191406 330.839844 175.34375 290.3125 C 172.753906 272.421875 176.6875 255.722656 183.378906 239.421875 C 192.21875 217.871094 204.707031 198.4375 218.964844 180.175781 C 227.664062 169.03125 237.109375 158.476562 246.308594 147.734375 C 248.691406 144.941406 251.074219 144.960938 253.476562 147.558594 C 276.054688 171.933594 296.308594 198.007812 311.296875 227.851562 C 317.929688 241.023438 323.046875 254.746094 324.84375 269.5 C 325.226562 272.648438 325.351562 275.820312 325.5 277.804688 Z M 249.960938 155.585938 C 234.023438 173.078125 219.578125 191.320312 207.226562 211.152344 C 199.40625 223.71875 192.507812 236.757812 187.753906 250.820312 C 183.46875 263.515625 181.210938 276.386719 183.484375 289.84375 C 188.457031 319.132812 211.804688 341.554688 241.796875 345.585938 C 270.078125 349.394531 298.703125 333.496094 311.007812 307.195312 C 319.304688 289.453125 318.898438 271.425781 312.96875 253.171875 C 307.78125 237.207031 299.96875 222.53125 290.976562 208.429688 C 278.992188 189.65625 265.203125 172.285156 249.960938 155.585938 Z M 249.960938 155.585938 "/>
<path style=" stroke:none;fill-rule:nonzero;fill:rgb(91.372549%,36.862745%,4.313725%);fill-opacity:1;" d="M 270.515625 241.90625 C 261.789062 241.933594 254.277344 238.632812 247.492188 233.429688 C 243.40625 230.304688 238.984375 227.910156 233.867188 227 C 225.546875 225.527344 218.3125 228.039062 211.699219 232.9375 C 209.382812 234.65625 206.875 234.550781 205.429688 232.675781 C 203.992188 230.820312 204.53125 228.339844 206.777344 226.523438 C 207.480469 225.957031 208.222656 225.429688 208.976562 224.921875 C 222.257812 216.152344 237.402344 216.375 250.460938 225.578125 C 252.089844 226.726562 253.640625 227.988281 255.3125 229.070312 C 265.421875 235.644531 277.039062 235.421875 286.921875 228.484375 C 287.519531 228.066406 288.066406 227.597656 288.664062 227.179688 C 290.742188 225.761719 293.15625 226.015625 294.492188 227.78125 C 295.839844 229.570312 295.527344 232 293.5625 233.5625 C 286.816406 238.914062 279.1875 241.882812 270.507812 241.90625 Z M 270.515625 241.90625 "/>
</g>
</svg>
