<?xml version="1.0" encoding="UTF-8"?><svg id="Layer_1" xmlns="http://www.w3.org/2000/svg" viewBox="0 0 800 800"><defs><style>.cls-1{fill:#fff;}</style></defs><path d="M382.07,0c11.44,0,22.87,0,34.31,0,3.57,.56,7.12,1.23,10.7,1.66,14.93,1.81,30.05,2.62,44.77,5.47,100.29,19.4,182.45,69.2,244.26,150.47,68.69,90.31,93.73,192.69,76.68,304.65-12.64,83.01-48.57,155.54-108.07,214.83-102.28,101.92-225.61,139.44-367.24,112.04-90.65-17.54-165.34-64.16-224.59-134.82-48.15-57.43-77.63-123.54-88.1-197.9C2.92,443.08,1.58,429.71,0,416.37c0-11.44,0-22.87,0-34.31,.57-3.79,1.22-7.58,1.69-11.39,1.81-14.67,2.74-29.5,5.47-43.99,16.33-86.77,56.89-160.46,121.68-220.38C189.03,50.64,259.97,16.79,341.19,4.89c13.57-1.99,27.25-3.28,40.87-4.89Zm-5.86,606.27c-16.78-2.18-32.6-3.25-48-6.42-39.24-8.07-72.29-26.3-92.21-62.67-20.55-37.51-25.06-78.15-20.51-120.08,.99-9.11,6.88-14.85,15.5-17.68,2.84-.93,5.8-1.5,9.44-2.42-16.19-25.99-23.96-54.12-25.63-83.73-1.1-19.63-5-39.99,6.51-57.37-29.3-29.26-58.46-58.39-87.6-87.49C67.45,238.35,22.56,362.33,58.13,487.82c41.34,145.84,139.3,234.32,288.71,259.78,106.63,18.17,201.87-13.07,283.48-81.61-32.29-32.31-63.6-63.63-95.29-95.34-31.96,25.74-70.98,33.29-112.79,34.55,0,3.36,0,6.13,0,8.9,0,22.09,.22,44.18-.08,66.27-.24,17.54-16.42,28.77-31.68,22.11-9.81-4.28-14.27-12.4-14.27-23.01,0-24.41,0-48.81,0-73.2Zm286.96,25.91c117.43-128.65,128.1-351.53-25.83-492.93C488.64,2.66,278.95,29.58,165.67,136.38c2.55,1.5,5.48,2.52,7.46,4.49,32.61,32.43,65.92,64.22,97.22,97.88,12.57,13.53,27.57,12.67,43.07,16.38-.12-2.28-.07-3.53-.27-4.74-2.71-16.34-2.44-32.58,1.78-48.65,11.21-42.75,37.48-75.29,70.67-102.86,9.25-7.68,20.32-7.08,29.75,2,13.42,12.94,26.78,26.2,38.3,40.8,19.12,24.25,31.93,51.61,33.2,83.21,.39,9.74,.06,19.5,.06,29.71,.45-.03,2.25,.07,3.93-.32,22.5-5.15,45.31-5.46,68.19-4.39,14.45,.68,23.01,7.92,24.32,22.22,3.84,41.94-1.35,82.35-22.31,119.75-.94,1.67-1.62,3.48-2.48,5.35,18.59,4.08,24.23,9.39,25.4,26.86,2.35,35.12-1.26,69.53-15.99,101.99-2.4,5.29-1.53,8.2,2.32,12.01,24.95,24.66,49.73,49.48,74.46,74.36,6.2,6.24,12.01,12.86,18.42,19.76Zm-125.2-336.49c-75.57-2.7-117.67,38.25-114.43,114.43,73.92,3.63,117.37-36.99,114.43-114.43Zm-162.99,114.21c3.27-75.27-39.15-117.34-114.11-114.1-4.73,73.79,38.38,118.64,114.11,114.1Zm.97,148.76c-1.1-31.24-4.53-61.58-26.82-85.39-23.82-25.45-55.83-28.91-88.4-30.44-2.6,77.07,35.44,116.37,115.22,115.83Zm47.23,.57c33.75-1.23,66.3-4.96,90.05-31.57,21.22-23.76,25.04-53.46,25.32-84.05-77.47-.81-116.19,35.95-115.37,115.62Zm-23.87-247.79c54.41-47.1,54.1-124.87-.22-162.14-56.32,53.89-55.45,107.98,.22,162.14Z"/><path class="cls-1" d="M0,416.37c1.58,13.34,2.92,26.71,4.79,40,10.47,74.36,39.95,140.47,88.1,197.9,59.24,70.67,133.94,117.29,224.59,134.82,141.62,27.4,264.96-10.12,367.24-112.04,59.5-59.29,95.43-131.82,108.07-214.83,17.05-111.96-7.99-214.34-76.68-304.65C654.29,76.33,572.13,26.53,471.84,7.13c-14.72-2.85-29.84-3.66-44.77-5.47C423.49,1.23,419.94,.56,416.37,0c127.88,0,255.75,0,383.63,0V800c-266.67,0-533.33,0-800,0C0,672.12,0,544.25,0,416.37Z"/><path class="cls-1" d="M382.07,0c-13.63,1.61-27.3,2.91-40.87,4.89-81.22,11.89-152.16,45.75-212.35,101.41C64.06,166.23,23.5,239.92,7.17,326.69c-2.73,14.49-3.66,29.32-5.47,43.99-.47,3.81-1.12,7.59-1.69,11.39C0,254.71,0,127.36,0,0H382.07Z"/><path class="cls-1" d="M376.21,606.27c0,24.39,0,48.79,0,73.2,0,10.61,4.46,18.72,14.27,23.01,15.26,6.66,31.44-4.57,31.68-22.11,.3-22.09,.08-44.18,.08-66.27,0-2.77,0-5.55,0-8.9,41.8-1.26,80.82-8.8,112.79-34.55,31.69,31.71,63,63.03,95.29,95.34-81.61,68.54-176.85,99.78-283.48,81.61-149.41-25.45-247.37-113.94-288.71-259.78-35.57-125.49,9.32-249.47,75.58-319.4,29.14,29.11,58.3,58.23,87.6,87.49-11.51,17.38-7.62,37.74-6.51,57.37,1.67,29.6,9.44,57.74,25.63,83.73-3.64,.92-6.6,1.49-9.44,2.42-8.61,2.83-14.51,8.57-15.5,17.68-4.55,41.93-.04,82.57,20.51,120.08,19.92,36.37,52.97,54.59,92.21,62.67,15.4,3.17,31.22,4.24,48,6.42Z"/><path class="cls-1" d="M663.17,632.18c-6.41-6.9-12.22-13.52-18.42-19.76-24.73-24.88-49.51-49.7-74.46-74.36-3.85-3.8-4.72-6.71-2.32-12.01,14.73-32.46,18.34-66.87,15.99-101.99-1.17-17.48-6.8-22.79-25.4-26.86,.86-1.87,1.54-3.68,2.48-5.35,20.96-37.4,26.15-77.81,22.31-119.75-1.31-14.29-9.87-21.54-24.32-22.22-22.88-1.08-45.69-.76-68.19,4.39-1.69,.39-3.49,.28-3.93,.32,0-10.21,.33-19.97-.06-29.71-1.26-31.6-14.08-58.96-33.2-83.21-11.51-14.6-24.88-27.86-38.3-40.8-9.42-9.08-20.5-9.69-29.75-2-33.19,27.57-59.46,60.1-70.67,102.86-4.21,16.07-4.49,32.31-1.78,48.65,.2,1.21,.15,2.46,.27,4.74-15.5-3.7-30.49-2.85-43.07-16.38-31.29-33.66-64.61-65.45-97.22-97.88-1.98-1.97-4.9-2.99-7.46-4.49,113.28-106.8,322.98-133.71,471.67,2.88,153.93,141.4,143.26,364.28,25.83,492.93Z"/><path class="cls-1" d="M537.97,295.69c2.94,77.44-40.51,118.06-114.43,114.43-3.24-76.18,38.86-117.13,114.43-114.43Z"/><path class="cls-1" d="M374.98,409.9c-75.73,4.54-118.84-40.31-114.11-114.1,74.96-3.24,117.38,38.83,114.11,114.1Z"/><path class="cls-1" d="M375.95,558.66c-79.77,.54-117.82-38.75-115.22-115.83,32.56,1.53,64.58,4.98,88.4,30.44,22.28,23.81,25.72,54.15,26.82,85.39Z"/><path class="cls-1" d="M423.18,559.23c-.82-79.67,37.91-116.43,115.37-115.62-.28,30.6-4.1,60.29-25.32,84.05-23.76,26.6-56.3,30.33-90.05,31.57Z"/><path class="cls-1" d="M399.31,311.44c-55.67-54.16-56.54-108.25-.22-162.14,54.32,37.27,54.63,115.03,.22,162.14Z"/></svg>