<?xml version="1.0" encoding="UTF-8"?><svg id="Layer_1" xmlns="http://www.w3.org/2000/svg" viewBox="0 0 800 800"><defs><style>.cls-1{fill:#fff;}</style></defs><path d="M48.19,0c233.97,0,467.93,0,701.9,0,.37,.42,.66,1.05,1.12,1.22,30.06,11.45,38.15,32.28,23.74,61.16-12.53,25.11-25.49,50.02-37.49,75.38-9.06,19.14-23.44,27.36-44.43,27.14-48.74-.5-97.48-.16-146.22-.16-3.3,0-6.6,0-9.86,0v83.02c2.8,.15,5.04,.37,7.28,.37,33.55,.03,67.09-.26,100.64,.1,39.49,.43,72.21,27.51,78.67,66.21,10.41,62.37,19.84,124.91,29.69,187.37,9.45,59.92,18.91,119.84,28.36,179.75,3.03,19.19,7.37,38.28,1.56,57.79-10.78,36.2-41.54,58.48-81.63,58.48-201.56,.04-403.12,.02-604.68,.01-2.29,0-4.59,0-6.88-.12-48.45-2.43-84.12-44.25-77.12-91.54,8.14-54.91,17.16-109.69,25.82-164.52,11.34-71.79,23.09-143.52,33.93-215.38,7.75-51.43,37.64-78.14,89.45-78.15,30.11,0,60.21,0,90.32,0,3.01,0,6.03,0,9.01,0v-83.41c-3.95,0-7.33,0-10.71,0-49.32,0-98.63-.1-147.95,.05-18.78,.06-32.21-7.7-40.56-24.81-12.68-25.99-25.85-51.74-38.79-77.6C8.9,33.51,17.02,12.65,47.06,1.22c.46-.18,.76-.8,1.13-1.22ZM398.83,771.16c102.05,0,204.09,.06,306.14-.03,33.71-.03,58.09-26.54,54.09-59.98-3.39-28.39-8.39-56.59-12.83-84.85-9.46-60.19-18.99-120.38-28.54-180.56-6.77-42.66-13.18-85.39-20.61-127.93-4.51-25.8-26.22-42.92-52.58-42.92-163.68-.06-327.35-.06-491.03,0-26.23,0-47.95,17.19-52.34,43.19-10.2,60.36-19.5,120.87-29.09,181.33-10.76,67.81-20.78,135.74-32.39,203.41-7.68,44.75,26.09,69.17,57.34,68.8,100.6-1.2,201.22-.45,301.83-.45Zm.25-744.05c-113.21,0-226.42,0-339.63,0-15.57,0-20.35,7.5-13.5,21.33,12.58,25.39,25.67,50.54,37.79,76.16,4.67,9.87,10.71,13.68,21.84,13.66,195.75-.31,391.51-.22,587.26-.22,2.01,0,4.29,.62,5.96-.14,4.18-1.88,10.01-3.37,11.79-6.79,14.98-28.66,29.39-57.62,43.53-86.7,4.29-8.83-1.2-16.66-11.11-17.26-2.57-.15-5.16-.04-7.74-.04-112.06,0-224.13,0-336.19,0Zm110.15,138.17h-219.89v82.33h219.89v-82.33Z"/><path class="cls-1" d="M48.19,0c-.37,.42-.66,1.04-1.13,1.22C17.02,12.65,8.9,33.51,23.34,62.38c12.93,25.86,26.11,51.61,38.79,77.6,8.35,17.12,21.78,24.87,40.56,24.81,49.31-.15,98.63-.05,147.95-.05,3.38,0,6.76,0,10.71,0v83.41c-2.98,0-6,0-9.01,0-30.11,0-60.21,0-90.32,0-51.81,0-81.7,26.72-89.45,78.15-10.83,71.87-22.58,143.59-33.93,215.38-8.66,54.83-17.69,109.61-25.82,164.52-7.01,47.29,28.66,89.11,77.12,91.54,2.29,.11,4.59,.12,6.88,.12,201.56,0,403.12,.02,604.68-.01,40.1,0,70.86-22.29,81.63-58.48,5.81-19.51,1.47-38.6-1.56-57.79-9.46-59.92-18.91-119.84-28.36-179.75-9.85-62.46-19.28-125-29.69-187.37-6.46-38.69-39.18-65.78-78.67-66.21-33.54-.36-67.09-.08-100.64-.1-2.24,0-4.48-.22-7.28-.37v-83.02c3.26,0,6.56,0,9.86,0,48.74,0,97.49-.34,146.22,.16,20.99,.21,35.37-8,44.43-27.14,12-25.36,24.96-50.27,37.49-75.38,14.41-28.88,6.32-49.7-23.74-61.16-.46-.18-.75-.81-1.12-1.22C763.28,0,776.47,0,789.66,0V800c-259.77,0-519.54,0-779.31,0,0-266.67,0-533.33,0-800C22.96,0,35.58,0,48.19,0Z"/><path class="cls-1" d="M398.83,771.17c-100.61,0-201.24-.75-301.83,.45-31.25,.37-65.02-24.06-57.34-68.8,11.61-67.66,21.63-135.6,32.39-203.41,9.59-60.46,18.9-120.97,29.09-181.33,4.39-26,26.11-43.18,52.34-43.19,163.68-.06,327.35-.06,491.03,0,26.36,0,48.07,17.12,52.58,42.92,7.43,42.55,13.84,85.27,20.61,127.93,9.55,60.18,19.08,120.36,28.54,180.56,4.44,28.26,9.44,56.46,12.83,84.85,4,33.44-20.38,59.95-54.09,59.98-102.05,.09-204.09,.03-306.14,.04Zm165.02-219.64c1.15-89.06-72.5-164.39-161.98-165.67-90.65-1.3-166.31,71.89-167.43,161.95-1.13,90.82,71.73,166.12,161.97,167.38,91.43,1.28,166.26-71.85,167.45-163.66Z"/><path class="cls-1" d="M399.08,27.11c112.06,0,224.13,0,336.19,0,2.58,0,5.17-.11,7.74,.04,9.91,.6,15.4,8.43,11.11,17.26-14.13,29.09-28.55,58.05-43.53,86.7-1.79,3.42-7.61,4.91-11.79,6.79-1.67,.75-3.96,.14-5.96,.14-195.75,0-391.51-.09-587.26,.22-11.13,.02-17.18-3.8-21.84-13.66-12.12-25.61-25.2-50.76-37.79-76.16-6.85-13.83-2.06-21.33,13.5-21.33,113.21-.02,226.42,0,339.63,0Z"/><path class="cls-1" d="M509.23,165.28v82.33h-219.89v-82.33h219.89Z"/><path d="M563.85,551.52c-1.19,91.81-76.01,164.94-167.45,163.66-90.25-1.26-163.11-76.56-161.97-167.38,1.12-90.06,76.79-163.24,167.43-161.95,89.48,1.28,163.14,76.61,161.98,165.67Zm-302.73-1.59c-.19,76.68,61.13,138.44,137.64,138.64,76.13,.2,138.28-61.33,138.41-137.03,.13-76.66-60.85-138.84-136.38-139.05-77.57-.22-139.49,60.71-139.68,137.44Z"/><path class="cls-1" d="M261.12,549.94c.19-76.73,62.11-137.66,139.68-137.44,75.52,.21,136.5,62.39,136.38,139.05-.13,75.7-62.28,137.23-138.41,137.03-76.51-.2-137.83-61.96-137.64-138.64Zm136.72,15.14c4.59-2.28,8.22-3.13,10.49-5.36,18.57-18.22,37.04-36.55,55.19-55.18,5.69-5.84,5.08-13.23-.25-18.4-5.34-5.18-12.25-5.26-18.45,.22-4.28,3.78-8.17,8-12.21,12.04-13.94,13.95-28.23,27.6-41.55,42.12-3,3.27-4.42,10.08-3.29,14.41,1.03,3.95,6.48,6.75,10.08,10.15Z"/><path d="M397.84,565.08c-3.59-3.39-9.05-6.19-10.08-10.15-1.12-4.33,.3-11.14,3.29-14.41,13.32-14.52,27.61-28.17,41.55-42.12,4.04-4.04,7.93-8.26,12.21-12.04,6.21-5.48,13.11-5.4,18.45-.22,5.33,5.17,5.94,12.56,.25,18.4-18.15,18.63-36.62,36.96-55.19,55.18-2.27,2.23-5.9,3.08-10.49,5.36Z"/></svg>