<?xml version="1.0" encoding="UTF-8"?><svg id="Layer_1" xmlns="http://www.w3.org/2000/svg" viewBox="0 0 800 800"><defs><style>.cls-1{fill:#fff;}</style></defs><path class="cls-1" d="M405.46,0c131.51,0,263.03,0,394.54,0V800H0c0-173.1,0-346.2,0-519.3,.73,5.62,1.34,11.25,2.22,16.85,10.15,65.09,43.12,114.79,100.35,147.85,5.51,3.18,7.34,6.56,7.32,12.75-.25,87.06-.3,174.12-.18,261.18,.01,7.7,.67,15.67,2.69,23.06,9.44,34.54,36.86,55.43,73.56,55.48,142.15,.2,284.31,.19,426.46-.02,24.59-.04,45.53-9.03,61.01-28.94,10.98-14.12,15.39-30.37,15.4-47.96,.05-86.8,.16-173.6-.19-260.4-.03-8.45,2.61-12.69,9.92-16.8,72.58-40.81,111.89-127.51,95.47-209.06-9.14-45.41-30.84-83.66-66.22-113.42-45.47-38.25-97.89-53.95-157.19-45.43-3.38,.49-7.99-1.28-10.68-3.57-8.87-7.57-16.64-16.47-25.71-23.77-27.97-22.53-59.57-37.53-95.13-43.62C427.94,2.99,416.68,1.62,405.46,0Z"/><path d="M405.46,0c11.22,1.62,22.48,2.99,33.64,4.9,35.56,6.09,67.17,21.09,95.13,43.62,9.07,7.3,16.84,16.2,25.71,23.77,2.69,2.3,7.31,4.06,10.68,3.57,59.3-8.53,111.72,7.17,157.19,45.43,35.38,29.76,57.08,68.01,66.22,113.42,16.42,81.54-22.89,168.25-95.47,209.06-7.3,4.11-9.95,8.34-9.92,16.8,.35,86.8,.24,173.6,.19,260.4,0,17.59-4.42,33.83-15.4,47.96-15.48,19.91-36.42,28.91-61.01,28.94-142.15,.21-284.31,.22-426.46,.02-36.7-.05-64.12-20.95-73.56-55.48-2.02-7.39-2.68-15.36-2.69-23.06-.13-87.06-.07-174.12,.18-261.18,.02-6.2-1.81-9.57-7.32-12.75C45.34,412.34,12.37,362.64,2.22,297.55c-.87-5.6-1.48-11.23-2.22-16.85,0-4.68,0-9.36,0-14.04,.71-6.14,1.33-12.28,2.15-18.4,5.9-43.77,23.27-82.34,54.45-113.74,47.26-47.58,104.27-67.9,171.29-58.64,3.37,.47,7.96-1.35,10.65-3.66,8.67-7.4,16.25-16.1,25.1-23.27,28.1-22.77,59.89-37.93,95.7-44.06C370.52,2.99,381.77,1.62,392.98,0c4.16,0,8.32,0,12.48,0ZM210.38,109.55c-20.54-3.11-45.22,.11-70.88,10.26-72.64,28.73-114.05,103.28-101.82,177.55,9.38,56.96,41.19,98.26,93.24,123.44,9.99,4.83,14.02,11.56,13.95,22.59-.36,55.1-.1,110.2-.38,165.3-.04,6.98,1.68,9.33,9.04,9.32,163.74-.2,327.48-.19,491.22-.02,6.93,0,9.32-1.62,9.28-9.02-.32-53.54,.28-107.09-.46-160.62-.21-15.1,5.02-23.49,18.67-30.11,66.43-32.23,103.61-108.13,86.93-179.59-15.62-66.94-58.04-109.13-124.66-126.41-15-3.89-30.45-4.81-47.04-2.9,1.82,3.72,3.1,6.47,4.48,9.17,15.72,30.79,24.23,63.35,23.89,98.04-.1,10.64-6.58,17.86-16.13,18.46-9.24,.59-16.56-6.27-17.93-16.67-2-15.14-2.67-30.63-6.36-45.36-23.49-93.73-117.62-153.09-211.79-133.88-83.01,16.93-142.77,88.34-145.94,169.11-.21,5.4-.76,10.99-2.38,16.09-2.32,7.29-10.85,11.76-18.09,10.55-9.05-1.52-14.49-8.15-14.64-18.25-.38-25.46,4.2-50.1,13.26-73.83,4.22-11.07,9.48-21.74,14.54-33.21Zm-65.05,543.68c-.34,1.74-.62,2.49-.62,3.24-.06,20.78-.11,41.57-.12,62.35,0,28.91,15.22,44.1,44.22,44.11,75.86,.01,151.73,0,227.59,0,65.47,0,130.94,.06,196.42-.03,24.49-.04,40.86-16.2,41-40.23,.1-16.63,.02-33.26,.02-49.88,0-6.4,0-12.8,0-19.56H145.33Z"/><path class="cls-1" d="M392.98,0c-11.21,1.62-22.47,2.99-33.63,4.9-35.81,6.14-67.6,21.29-95.7,44.06-8.84,7.16-16.43,15.87-25.1,23.27-2.7,2.3-7.28,4.12-10.65,3.66-67.03-9.26-124.04,11.06-171.29,58.64C25.43,165.92,8.05,204.49,2.15,248.26,1.33,254.38,.71,260.53,0,266.67c0-88.78,0-177.57,0-266.67C130.99,0,261.99,0,392.98,0Z"/><path class="cls-1" d="M210.38,109.55c-5.06,11.48-10.32,22.15-14.54,33.21-9.06,23.73-13.64,48.37-13.26,73.83,.15,10.11,5.59,16.74,14.64,18.25,7.24,1.21,15.77-3.26,18.09-10.55,1.62-5.11,2.17-10.69,2.38-16.09,3.17-80.77,62.94-152.17,145.94-169.11,94.18-19.21,188.31,40.14,211.79,133.88,3.69,14.73,4.36,30.21,6.36,45.36,1.37,10.4,8.69,17.26,17.93,16.67,9.55-.6,16.03-7.82,16.13-18.46,.34-34.69-8.17-67.25-23.89-98.04-1.38-2.7-2.67-5.45-4.48-9.17,16.59-1.91,32.04-.99,47.04,2.9,66.62,17.27,109.03,59.47,124.66,126.41,16.68,71.45-20.5,147.36-86.93,179.59-13.65,6.62-18.88,15.01-18.67,30.11,.74,53.53,.14,107.08,.46,160.62,.04,7.4-2.34,9.03-9.28,9.02-163.74-.17-327.48-.18-491.22,.02-7.36,0-9.08-2.34-9.04-9.32,.28-55.1,.02-110.2,.38-165.3,.07-11.03-3.96-17.76-13.95-22.59-52.05-25.18-83.87-66.47-93.24-123.44-12.22-74.27,29.19-148.82,101.82-177.55,25.66-10.15,50.34-13.36,70.88-10.26Zm61.76,379.87c-1.96-4.1-3.52-8.46-5.98-12.24-3.68-5.64-8.29-10.67-12-16.29-16.57-25.09-33.73-49.89-37.64-80.95-1.32-10.52-9.34-17.02-18.33-16.09-9.62,1-16.78,8.38-15.28,18.9,1.92,13.44,4.67,27.11,9.53,39.72,10.92,28.28,28.09,53.09,46.78,76.8,5.62,7.12,13,9.43,20.65,6.9,6.44-2.12,11.14-8.96,12.26-16.75Zm343.5-99.64c.45-17.36-5.13-24.93-15.49-25.93-9.39-.9-15.56,5.93-18.85,17.66-4.09,14.59-7.89,29.71-15,42.88-10.17,18.85-23.27,36.12-35.04,54.12-6.24,9.54-4.84,19.79,3.3,25.52,7.76,5.46,18.56,3.92,24.61-4.92,13.61-19.87,27.32-39.75,39.44-60.53,9.52-16.33,15.95-34.26,17.03-48.79Zm-199.49,46.03c.08,0,.15,0,.23,0,0-16.88,.1-33.75-.08-50.63-.04-3.81-.36-7.89-1.74-11.37-2.74-6.92-10.85-11.02-17.75-9.83-8.53,1.48-14.45,7.61-14.51,16.69-.23,36.6-.12,73.21,0,109.82,0,2.49,.7,5.2,1.82,7.42,3.66,7.26,11.35,10.38,19.81,8.46,6.64-1.51,11.99-7.56,12.11-15.27,.3-18.43,.1-36.86,.1-55.29Z"/><path class="cls-1" d="M145.33,653.23h508.53c0,6.76,0,13.16,0,19.56,0,16.63,.08,33.26-.02,49.88-.15,24.03-16.51,40.2-41,40.23-65.47,.09-130.94,.03-196.42,.03-75.86,0-151.73,0-227.59,0-29.01,0-44.23-15.2-44.22-44.11,0-20.78,.06-41.57,.12-62.35,0-.75,.28-1.5,.62-3.24Z"/><path d="M272.14,489.43c-1.12,7.79-5.82,14.63-12.26,16.75-7.66,2.53-15.04,.22-20.65-6.9-18.69-23.71-35.87-48.51-46.78-76.8-4.87-12.61-7.61-26.28-9.53-39.72-1.5-10.52,5.65-17.9,15.28-18.9,9-.93,17.01,5.57,18.33,16.09,3.91,31.06,21.07,55.86,37.64,80.95,3.71,5.62,8.32,10.65,12,16.29,2.46,3.77,4.02,8.14,5.98,12.24Z"/><path d="M615.64,389.79c-1.08,14.54-7.51,32.46-17.03,48.79-12.12,20.78-25.83,40.66-39.44,60.53-6.05,8.84-16.86,10.38-24.61,4.92-8.14-5.73-9.54-15.97-3.3-25.52,11.77-18,24.86-35.27,35.04-54.12,7.11-13.17,10.91-28.3,15-42.88,3.29-11.73,9.46-18.56,18.85-17.66,10.36,1,15.94,8.57,15.49,25.93Z"/><path d="M416.16,435.82c0,18.43,.21,36.87-.1,55.29-.13,7.71-5.47,13.76-12.11,15.27-8.47,1.92-16.15-1.2-19.81-8.46-1.12-2.23-1.81-4.93-1.82-7.42-.12-36.61-.23-73.21,0-109.82,.06-9.08,5.97-15.21,14.51-16.69,6.9-1.2,15,2.91,17.75,9.83,1.38,3.48,1.7,7.56,1.74,11.37,.18,16.87,.08,33.75,.08,50.63-.08,0-.15,0-.23,0Z"/></svg>