<?xml version="1.0" encoding="UTF-8"?><svg id="Layer_7" xmlns="http://www.w3.org/2000/svg" xmlns:xlink="http://www.w3.org/1999/xlink" viewBox="0 0 810 810"><defs><style>.cls-1{fill:url(#linear-gradient);}.cls-2{fill:url(#linear-gradient-2);}</style><linearGradient id="linear-gradient" x1="76.06" y1="76.56" x2="669.91" y2="670.41" gradientUnits="userSpaceOnUse"><stop offset="0" stop-color="#49a09a"/><stop offset="1" stop-color="#482b5a"/></linearGradient><linearGradient id="linear-gradient-2" x1="76.31" y1="76.31" x2="670.16" y2="670.16" xlink:href="#linear-gradient"/></defs><path class="cls-1" d="M404.51,300c-57.9,0-105,47.1-105,105s47.1,105,105,105,105-47.1,105-105-47.1-105-105-105Zm0,200c-52.38,0-95-42.62-95-95s42.62-95,95-95,95,42.62,95,95-42.62,95-95,95Z"/><path class="cls-1" d="M404.51,150c-68.11,0-132.15,26.52-180.31,74.69s-74.69,112.2-74.69,180.31,26.52,132.15,74.69,180.31,112.2,74.69,180.31,74.69,132.15-26.52,180.31-74.69,74.69-112.2,74.69-180.31-26.52-132.15-74.69-180.31-112.2-74.69-180.31-74.69Zm173.24,428.24c-46.27,46.27-107.8,71.76-173.24,71.76s-126.97-25.48-173.24-71.76-71.76-107.8-71.76-173.24,25.48-126.97,71.76-173.24,107.8-71.76,173.24-71.76,126.97,25.48,173.24,71.76,71.76,107.8,71.76,173.24-25.48,126.97-71.76,173.24Z"/><path class="cls-2" d="M778.17,247.35c-20.4-48.23-49.6-91.54-86.79-128.73-37.19-37.19-80.5-66.39-128.73-86.79C512.71,10.71,459.67,0,405,0s-107.71,10.71-157.65,31.83c-48.23,20.4-91.54,49.6-128.73,86.79-37.19,37.19-66.39,80.5-86.79,128.73C10.71,297.29,0,350.33,0,405s10.71,107.71,31.83,157.65c20.4,48.23,49.6,91.54,86.79,128.73,37.19,37.19,80.5,66.39,128.73,86.79,49.93,21.12,102.97,31.83,157.65,31.83s107.71-10.71,157.65-31.83c48.23-20.4,91.54-49.6,128.73-86.79,37.19-37.19,66.39-80.5,86.79-128.73,21.12-49.93,31.83-102.97,31.83-157.65s-10.71-107.71-31.83-157.65Zm-9.21,311.4c-19.89,47.04-48.38,89.28-84.65,125.56-36.28,36.28-78.52,64.76-125.56,84.65-48.69,20.6-100.42,31.04-153.75,31.04s-105.06-10.44-153.75-31.04c-47.04-19.89-89.28-48.38-125.56-84.65-36.28-36.28-64.76-78.52-84.65-125.56-20.6-48.69-31.04-100.42-31.04-153.75s10.44-105.06,31.04-153.75c19.89-47.04,48.38-89.28,84.65-125.56,36.28-36.28,78.52-64.76,125.56-84.65,48.69-20.6,100.42-31.04,153.75-31.04s105.06,10.44,153.75,31.04c47.04,19.89,89.28,48.38,125.56,84.65,36.28,36.28,64.76,78.52,84.65,125.56,20.6,48.69,31.04,100.42,31.04,153.75s-10.44,105.06-31.04,153.75Z"/></svg>