<?xml version="1.0" encoding="UTF-8"?><svg id="Layer_7" xmlns="http://www.w3.org/2000/svg" xmlns:xlink="http://www.w3.org/1999/xlink" viewBox="0 0 810 810"><defs><style>.cls-1{fill:url(#linear-gradient);}.cls-2{fill:url(#linear-gradient-8);}.cls-3{fill:url(#linear-gradient-9);}.cls-4{fill:url(#linear-gradient-3);}.cls-5{fill:url(#linear-gradient-4);}.cls-6{fill:url(#linear-gradient-2);}.cls-7{fill:url(#linear-gradient-6);}.cls-8{fill:url(#linear-gradient-7);}.cls-9{fill:url(#linear-gradient-5);}</style><linearGradient id="linear-gradient" x1="187.98" y1="-11.78" x2="810.29" y2="610.54" gradientUnits="userSpaceOnUse"><stop offset="0" stop-color="#bb3945"/><stop offset="1" stop-color="#c74687"/></linearGradient><linearGradient id="linear-gradient-2" x1="-12.02" y1="188.22" x2="610.29" y2="810.54" xlink:href="#linear-gradient"/><linearGradient id="linear-gradient-3" x1="-12.02" y1="188.22" x2="610.29" y2="810.54" xlink:href="#linear-gradient"/><linearGradient id="linear-gradient-4" x1="186.98" y1="-10.78" x2="809.29" y2="611.54" xlink:href="#linear-gradient"/><linearGradient id="linear-gradient-5" x1="229.4" y1="-53.2" x2="851.71" y2="569.12" xlink:href="#linear-gradient"/><linearGradient id="linear-gradient-6" x1="-53.44" y1="229.65" x2="568.87" y2="851.96" xlink:href="#linear-gradient"/><linearGradient id="linear-gradient-7" x1="87.98" y1="88.22" x2="710.29" y2="710.54" xlink:href="#linear-gradient"/><linearGradient id="linear-gradient-8" x1="87.98" y1="88.22" x2="710.29" y2="710.54" xlink:href="#linear-gradient"/><linearGradient id="linear-gradient-9" x1="88.1" y1="88.1" x2="710.42" y2="710.42" xlink:href="#linear-gradient"/></defs><path class="cls-1" d="M404.75,100c-2.76,0-5,2.24-5,5v200c0,2.76,2.24,5,5,5s5-2.24,5-5V105c0-2.76-2.24-5-5-5Z"/><path class="cls-6" d="M404.75,500c-2.76,0-5,2.24-5,5v200c0,2.76,2.24,5,5,5s5-2.24,5-5v-200c0-2.76-2.24-5-5-5Z"/><path class="cls-4" d="M309.75,405c0-2.76-2.24-5-5-5H104.75c-2.76,0-5,2.24-5,5s2.24,5,5,5h200c2.76,0,5-2.24,5-5Z"/><path class="cls-5" d="M702.75,400h-200c-2.76,0-5,2.24-5,5s2.24,5,5,5h200c2.76,0,5-2.24,5-5s-2.24-5-5-5Z"/><path class="cls-9" d="M475.46,339.29c1.28,0,2.56-.49,3.54-1.46l141.42-141.42c1.95-1.95,1.95-5.12,0-7.07-1.95-1.95-5.12-1.95-7.07,0l-141.42,141.42c-1.95,1.95-1.95,5.12,0,7.07,.98,.98,2.26,1.46,3.54,1.46Z"/><path class="cls-7" d="M330.51,472.18l-141.42,141.42c-1.95,1.95-1.95,5.12,0,7.07,.98,.98,2.26,1.46,3.54,1.46s2.56-.49,3.54-1.46l141.42-141.42c1.95-1.95,1.95-5.12,0-7.07-1.95-1.95-5.12-1.95-7.07,0Z"/><path class="cls-8" d="M196.16,189.33c-1.95-1.95-5.12-1.95-7.07,0-1.95,1.95-1.95,5.12,0,7.07l141.42,141.42c.98,.98,2.26,1.46,3.54,1.46s2.56-.49,3.54-1.46c1.95-1.95,1.95-5.12,0-7.07L196.16,189.33Z"/><path class="cls-2" d="M477.59,470.76c-1.95-1.95-5.12-1.95-7.07,0-1.95,1.95-1.95,5.12,0,7.07l141.42,141.42c.98,.98,2.26,1.46,3.54,1.46s2.56-.49,3.54-1.46c1.95-1.95,1.95-5.12,0-7.07l-141.42-141.42Z"/><path class="cls-3" d="M778.17,247.35c-20.4-48.23-49.6-91.54-86.79-128.73-37.19-37.19-80.5-66.39-128.73-86.79C512.71,10.71,459.67,0,405,0s-107.71,10.71-157.65,31.83c-48.23,20.4-91.54,49.6-128.73,86.79-37.19,37.19-66.39,80.5-86.79,128.73C10.71,297.29,0,350.33,0,405s10.71,107.71,31.83,157.65c20.4,48.23,49.6,91.54,86.79,128.73,37.19,37.19,80.5,66.39,128.73,86.79,49.93,21.12,102.97,31.83,157.65,31.83s107.71-10.71,157.65-31.83c48.23-20.4,91.54-49.6,128.73-86.79,37.19-37.19,66.39-80.5,86.79-128.73,21.12-49.93,31.83-102.97,31.83-157.65s-10.71-107.71-31.83-157.65Zm-9.21,311.4c-19.89,47.04-48.38,89.28-84.65,125.56-36.28,36.28-78.52,64.76-125.56,84.65-48.69,20.6-100.42,31.04-153.75,31.04s-105.06-10.44-153.75-31.04c-47.04-19.89-89.28-48.38-125.56-84.65-36.28-36.28-64.76-78.52-84.65-125.56-20.6-48.69-31.04-100.42-31.04-153.75s10.44-105.06,31.04-153.75c19.89-47.04,48.38-89.28,84.65-125.56,36.28-36.28,78.52-64.76,125.56-84.65,48.69-20.6,100.42-31.04,153.75-31.04s105.06,10.44,153.75,31.04c47.04,19.89,89.28,48.38,125.56,84.65,36.28,36.28,64.76,78.52,84.65,125.56,20.6,48.69,31.04,100.42,31.04,153.75s-10.44,105.06-31.04,153.75Z"/></svg>