<?xml version="1.0" encoding="UTF-8"?><svg id="Layer_7" xmlns="http://www.w3.org/2000/svg" xmlns:xlink="http://www.w3.org/1999/xlink" viewBox="0 0 810 810"><defs><style>.cls-1{fill:url(#linear-gradient);}.cls-2{fill:url(#linear-gradient-3);}.cls-3{fill:url(#linear-gradient-4);}.cls-4{fill:url(#linear-gradient-2);}</style><linearGradient id="linear-gradient" x1="262.01" y1="62.01" x2="812.23" y2="612.23" gradientUnits="userSpaceOnUse"><stop offset="0" stop-color="#f3c86a"/><stop offset="1" stop-color="#f1a672"/></linearGradient><linearGradient id="linear-gradient-2" x1="63.27" y1="260.75" x2="613.49" y2="810.97" xlink:href="#linear-gradient"/><linearGradient id="linear-gradient-3" x1="162.01" y1="162.01" x2="712.23" y2="712.23" xlink:href="#linear-gradient"/><linearGradient id="linear-gradient-4" x1="112.01" y1="212.01" x2="662.23" y2="762.23" xlink:href="#linear-gradient"/></defs><path class="cls-1" d="M605,250c-79.95,0-145-65.05-145-145,0-2.76-2.24-5-5-5s-5,2.24-5,5c0,79.95-65.05,145-145,145-2.76,0-5,2.24-5,5s2.24,5,5,5c79.95,0,145,65.05,145,145,0,2.76,2.24,5,5,5s5-2.24,5-5c0-79.95,65.05-145,145-145,2.76,0,5-2.24,5-5s-2.24-5-5-5Zm-150,115.88c-14.12-54.08-56.79-96.76-110.88-110.88,54.08-14.12,96.76-56.79,110.88-110.88,14.12,54.08,56.79,96.76,110.88,110.88-54.08,14.12-96.76,56.79-110.88,110.88Z"/><path class="cls-4" d="M369.02,461.49c-52.38,0-95-42.62-95-95,0-2.76-2.24-5-5-5s-5,2.24-5,5c0,52.38-42.62,95-95,95-2.76,0-5,2.24-5,5s2.24,5,5,5c52.38,0,95,42.62,95,95,0,2.76,2.24,5,5,5s5-2.24,5-5c0-52.38,42.62-95,95-95,2.76,0,5-2.24,5-5s-2.24-5-5-5Zm-100,72.95c-10.33-32.17-35.78-57.62-67.95-67.95,32.17-10.33,57.62-35.78,67.95-67.95,10.33,32.17,35.78,57.62,67.95,67.95-32.17,10.33-57.62,35.78-67.95,67.95Z"/><path class="cls-2" d="M778.17,247.35c-20.4-48.23-49.6-91.54-86.79-128.73-37.19-37.19-80.5-66.39-128.73-86.79C512.71,10.71,459.67,0,405,0s-107.71,10.71-157.65,31.83c-48.23,20.4-91.54,49.6-128.73,86.79-37.19,37.19-66.39,80.5-86.79,128.73C10.71,297.29,0,350.33,0,405s10.71,107.71,31.83,157.65c20.4,48.23,49.6,91.54,86.79,128.73,37.19,37.19,80.5,66.39,128.73,86.79,49.93,21.12,102.97,31.83,157.65,31.83s107.71-10.71,157.65-31.83c48.23-20.4,91.54-49.6,128.73-86.79,37.19-37.19,66.39-80.5,86.79-128.73,21.12-49.93,31.83-102.97,31.83-157.65s-10.71-107.71-31.83-157.65Zm-9.21,311.4c-19.89,47.04-48.38,89.28-84.65,125.56-36.28,36.28-78.52,64.76-125.56,84.65-48.69,20.6-100.42,31.04-153.75,31.04s-105.06-10.44-153.75-31.04c-47.04-19.89-89.28-48.38-125.56-84.65-36.28-36.28-64.76-78.52-84.65-125.56-20.6-48.69-31.04-100.42-31.04-153.75s10.44-105.06,31.04-153.75c19.89-47.04,48.38-89.28,84.65-125.56,36.28-36.28,78.52-64.76,125.56-84.65,48.69-20.6,100.42-31.04,153.75-31.04s105.06,10.44,153.75,31.04c47.04,19.89,89.28,48.38,125.56,84.65,36.28,36.28,64.76,78.52,84.65,125.56,20.6,48.69,31.04,100.42,31.04,153.75s-10.44,105.06-31.04,153.75Z"/><path class="cls-3" d="M568.19,600c-32.08,0-58.19-26.1-58.19-58.19,0-2.76-2.24-5-5-5s-5,2.24-5,5c0,32.08-26.1,58.19-58.19,58.19-2.76,0-5,2.24-5,5s2.24,5,5,5c32.08,0,58.19,26.1,58.19,58.19,0,2.76,2.24,5,5,5s5-2.24,5-5c0-32.08,26.1-58.19,58.19-58.19,2.76,0,5-2.24,5-5s-2.24-5-5-5Zm-63.19,42.55c-6.93-17.01-20.54-30.63-37.55-37.55,17.01-6.93,30.63-20.54,37.55-37.55,6.93,17.01,20.54,30.63,37.55,37.55-17.01,6.93-30.63,20.54-37.55,37.55Z"/></svg>