<?xml version="1.0" encoding="utf-8"?>
<!-- Generator: Adobe Illustrator 19.2.1, SVG Export Plug-In . SVG Version: 6.00 Build 0)  -->
<svg version="1.1" id="layer" xmlns="http://www.w3.org/2000/svg" xmlns:xlink="http://www.w3.org/1999/xlink" x="0px" y="0px"
	 viewBox="0 0 652 652" style="enable-background:new 0 0 652 652;" xml:space="preserve">
<style type="text/css">
	.st0{fill:#AB9A60;}
	.st1{fill:#787045;}
</style>
<g>
	<path class="st0" d="M336.5,214L336.5,214h-4.9v-2.2c3.5,0,6.4-2.9,6.4-6.4c0-3.5-2.9-6.4-6.4-6.4h-0.1h-21.9h-0.1
		c-3.5,0-6.4,2.9-6.4,6.4c0,3.5,2.9,6.4,6.4,6.4v2.2h-4.9h0c-7.1,0-12.8,5.8-12.8,12.8c0,7.1,5.8,12.9,12.8,12.9v4.2h0h31.7h0v-4.2
		c7.1,0,12.8-5.8,12.8-12.9C349.4,219.7,343.6,214,336.5,214"/>
	<polygon class="st0" points="255.2,287.3 287.3,231.8 320.6,287.3 	"/>
	<polygon class="st0" points="386.1,287.3 354,231.8 320.7,287.3 	"/>
	<polygon class="st0" points="333.5,195.7 320.7,173.5 307.8,195.7 	"/>
	<path class="st1" d="M62.2,451.9c0.1,0,0.3-0.1,0.3-0.3v-0.9c0-6.7,0-7.9-0.1-9.3c-0.1-1.5-0.4-2.2-1.9-2.5
		c-0.4-0.1-1.1-0.1-1.7-0.1c-0.5,0-0.7-0.1-0.7-0.4c0-0.3,0.3-0.4,0.9-0.4c2.4,0,5.1,0.1,6.3,0.1c1.1,0,3.8-0.1,5.5-0.1
		c0.6,0,0.9,0.1,0.9,0.4c0,0.3-0.3,0.4-0.8,0.4c-0.4,0-0.7,0-1.3,0.1c-1.2,0.2-1.5,1-1.6,2.5c-0.1,1.4-0.1,2.6-0.1,9.3v7.7
		c0,4,0,7.5,0.2,9.4c0.1,1.2,0.4,2.2,1.7,2.4c0.6,0.1,1.6,0.2,2.2,0.2c0.5,0,0.7,0.1,0.7,0.4c0,0.3-0.4,0.4-0.9,0.4
		c-2.8,0-5.6-0.1-6.8-0.1c-1,0-3.8,0.1-5.5,0.1c-0.6,0-0.9-0.1-0.9-0.4c0-0.2,0.2-0.4,0.7-0.4c0.7,0,1.2-0.1,1.6-0.2
		c0.9-0.2,1.1-1.1,1.3-2.4c0.2-1.8,0.2-5.3,0.2-9.3v-3.9c0-0.2-0.1-0.3-0.3-0.3H45.4c-0.1,0-0.3,0-0.3,0.3v3.9c0,4,0,7.5,0.2,9.4
		c0.1,1.2,0.4,2.2,1.7,2.4c0.6,0.1,1.6,0.2,2.2,0.2c0.5,0,0.7,0.1,0.7,0.4c0,0.3-0.4,0.4-0.9,0.4c-2.8,0-5.6-0.1-6.8-0.1
		c-1,0-3.8,0.1-5.5,0.1c-0.6,0-0.9-0.1-0.9-0.4c0-0.2,0.2-0.4,0.7-0.4c0.7,0,1.2-0.1,1.6-0.2c0.9-0.2,1.1-1.1,1.3-2.4
		c0.2-1.8,0.2-5.3,0.2-9.3v-7.7c0-6.7,0-7.9-0.1-9.3c-0.1-1.5-0.4-2.2-1.9-2.5c-0.4-0.1-1.1-0.1-1.7-0.1c-0.5,0-0.7-0.1-0.7-0.4
		c0-0.3,0.3-0.4,0.9-0.4c2.4,0,5.1,0.1,6.3,0.1c1.1,0,3.8-0.1,5.5-0.1c0.6,0,0.9,0.1,0.9,0.4c0,0.3-0.3,0.4-0.8,0.4
		c-0.4,0-0.7,0-1.3,0.1c-1.2,0.2-1.5,1-1.6,2.5c-0.1,1.4-0.1,2.6-0.1,9.3v0.9c0,0.2,0.1,0.3,0.3,0.3H62.2z"/>
	<path class="st1" d="M77.5,454.5c0-7.5,5-17.2,18.1-17.2c10.9,0,17.7,6.4,17.7,16.4c0,10-7,18-18.2,18
		C82.6,471.7,77.5,462.3,77.5,454.5 M107.2,455.4c0-9.8-5.7-15.9-12.8-15.9c-5,0-10.8,2.8-10.8,13.7c0,9.1,5,16.4,13.5,16.4
		C100.1,469.5,107.2,468,107.2,455.4"/>
	<path class="st1" d="M128.4,440.4l-6.5,0.2c-2.5,0.1-3.6,0.3-4.3,1.3c-0.4,0.7-0.7,1.2-0.7,1.5c-0.1,0.4-0.2,0.5-0.5,0.5
		c-0.3,0-0.4-0.2-0.4-0.7c0-0.7,0.8-4.7,0.9-5c0.1-0.6,0.3-0.8,0.5-0.8c0.4,0,0.8,0.4,1.9,0.5c1.3,0.1,2.9,0.2,4.4,0.2h17.4
		c1.4,0,2.4-0.1,3-0.2c0.7-0.1,1-0.2,1.2-0.2c0.3,0,0.4,0.3,0.4,0.9c0,0.9-0.1,3.9-0.1,5.1c0,0.4-0.1,0.7-0.4,0.7
		c-0.4,0-0.4-0.2-0.5-0.9l0-0.5c-0.1-1.1-1.3-2.4-5.2-2.5l-5.5-0.1v18c0,4,0,7.5,0.2,9.4c0.1,1.2,0.4,2.2,1.7,2.4
		c0.6,0.1,1.6,0.2,2.2,0.2c0.5,0,0.7,0.1,0.7,0.4c0,0.3-0.4,0.4-0.8,0.4c-2.9,0-5.7-0.1-6.9-0.1c-1,0-3.8,0.1-5.5,0.1
		c-0.6,0-0.9-0.1-0.9-0.4c0-0.2,0.2-0.4,0.7-0.4c0.7,0,1.2-0.1,1.6-0.2c0.9-0.2,1.1-1.1,1.3-2.4c0.2-1.8,0.2-5.3,0.2-9.3V440.4z"/>
	<path class="st1" d="M154.2,450.7c0-6.7,0-7.9-0.1-9.3c-0.1-1.5-0.4-2.2-1.9-2.5c-0.4-0.1-1.1-0.1-1.7-0.1c-0.5,0-0.7-0.1-0.7-0.4
		c0-0.3,0.3-0.4,1-0.4c1.2,0,2.5,0,3.6,0c1.1,0,2.1,0.1,2.8,0.1c1.4,0,10.1,0,11,0c0.8-0.1,1.5-0.2,1.9-0.3c0.2,0,0.5-0.2,0.7-0.2
		c0.2,0,0.3,0.2,0.3,0.4c0,0.3-0.2,0.8-0.4,2.8c0,0.4-0.1,2.4-0.2,2.9c0,0.2-0.1,0.5-0.4,0.5c-0.3,0-0.4-0.2-0.4-0.6
		c0-0.3,0-1.1-0.3-1.6c-0.3-0.8-0.7-1.3-2.9-1.6c-0.7-0.1-5.3-0.2-6.2-0.2c-0.2,0-0.3,0.1-0.3,0.4v11.1c0,0.3,0,0.5,0.3,0.5
		c1,0,6,0,7-0.1c1.1-0.1,1.7-0.2,2.1-0.7c0.3-0.4,0.5-0.6,0.7-0.6c0.2,0,0.3,0.1,0.3,0.4c0,0.3-0.2,1-0.4,3.2c0,0.9-0.2,2.6-0.2,2.9
		c0,0.4,0,0.8-0.4,0.8c-0.3,0-0.4-0.2-0.4-0.4c0-0.4,0-1-0.2-1.6c-0.2-0.9-0.8-1.5-2.5-1.7c-0.8-0.1-5.2-0.1-6.2-0.1
		c-0.2,0-0.3,0.2-0.3,0.4v3.5c0,1.5,0,5.5,0,6.8c0.1,3,0.8,3.7,5.3,3.7c1.1,0,3,0,4.1-0.5c1.1-0.5,1.7-1.4,2-3.2
		c0.1-0.5,0.2-0.7,0.5-0.7c0.4,0,0.4,0.4,0.4,0.8c0,1-0.4,4-0.6,4.9c-0.3,1.1-0.7,1.1-2.4,1.1c-3.3,0-5.7-0.1-7.6-0.1
		c-1.9-0.1-3.2-0.1-4.6-0.1c-0.5,0-1.4,0-2.5,0c-1,0-2.1,0.1-3,0.1c-0.6,0-0.9-0.1-0.9-0.4c0-0.2,0.2-0.4,0.7-0.4
		c0.7,0,1.2-0.1,1.6-0.2c0.9-0.2,1.1-1.1,1.3-2.4c0.2-1.8,0.2-5.3,0.2-9.3V450.7z"/>
	<path class="st1" d="M187.8,458.4c0,5.6,0,8.6,0.9,9.4c0.7,0.7,1.9,1,5.3,1c2.3,0,4,0,5.1-1.2c0.5-0.6,1.1-1.8,1.1-2.6
		c0-0.4,0.1-0.7,0.5-0.7c0.3,0,0.4,0.2,0.4,0.7c0,0.5-0.3,3.8-0.7,5c-0.3,1-0.5,1.2-2.8,1.2c-3.2,0-5.4-0.1-7.4-0.1
		c-2-0.1-3.6-0.1-5.3-0.1c-0.5,0-1.4,0-2.5,0c-1,0-2.1,0.1-3,0.1c-0.6,0-0.9-0.1-0.9-0.4c0-0.2,0.2-0.4,0.7-0.4
		c0.7,0,1.2-0.1,1.6-0.2c0.9-0.2,1.1-1.1,1.3-2.4c0.2-1.8,0.2-5.3,0.2-9.3v-7.7c0-6.7,0-7.9-0.1-9.3c-0.1-1.5-0.4-2.2-1.9-2.5
		c-0.4-0.1-0.9-0.1-1.4-0.1c-0.5,0-0.7-0.1-0.7-0.4s0.3-0.4,1-0.4c2.1,0,4.8,0.1,6,0.1c1.1,0,4.3-0.1,6-0.1c0.6,0,0.9,0.1,0.9,0.4
		s-0.3,0.4-0.8,0.4c-0.5,0-1.2,0-1.7,0.1c-1.2,0.2-1.5,1-1.6,2.5c-0.1,1.4-0.1,2.6-0.1,9.3V458.4z"/>
	<path class="st1" d="M206.9,470.6c-0.7-0.3-0.8-0.5-0.8-1.5c0-2.4,0.2-5,0.2-5.7c0-0.7,0.2-1.1,0.5-1.1c0.4,0,0.4,0.4,0.4,0.7
		c0,0.6,0.2,1.5,0.4,2.2c1,3.2,3.6,4.4,6.3,4.4c3.9,0,5.9-2.7,5.9-5c0-2.1-0.7-4.2-4.3-7l-2-1.6c-4.8-3.8-6.5-6.8-6.5-10.4
		c0-4.8,4-8.3,10.1-8.3c2.8,0,4.7,0.4,5.8,0.7c0.4,0.1,0.6,0.2,0.6,0.5c0,0.6-0.2,1.8-0.2,5.3c0,1-0.1,1.3-0.5,1.3
		c-0.3,0-0.4-0.3-0.4-0.8c0-0.4-0.2-1.8-1.1-2.9c-0.7-0.8-1.9-2.1-4.8-2.1c-3.2,0-5.2,1.9-5.2,4.5c0,2,1,3.6,4.6,6.3l1.2,0.9
		c5.3,4,7.2,7,7.2,11.2c0,2.5-1,5.6-4.1,7.6c-2.2,1.4-4.6,1.8-7,1.8C210.7,471.7,208.8,471.4,206.9,470.6"/>
	<path class="st1" d="M262.4,450.7c0-6.7,0-7.9-0.1-9.3c-0.1-1.5-0.4-2.2-1.9-2.5c-0.4-0.1-1.1-0.1-1.7-0.1c-0.5,0-0.7-0.1-0.7-0.4
		s0.3-0.4,1-0.4c2.3,0,5.1,0.1,6,0.1c1.5,0,4.8-0.1,6.2-0.1c2.8,0,5.7,0.3,8.1,1.9c1.2,0.8,3,3.1,3,6c0,3.2-1.4,6.2-5.8,9.8
		c3.9,4.9,6.9,8.8,9.5,11.5c2.5,2.5,4.3,2.8,4.9,3c0.5,0.1,0.9,0.1,1.2,0.1c0.3,0,0.5,0.1,0.5,0.4c0,0.4-0.3,0.4-0.8,0.4h-4.2
		c-2.5,0-3.6-0.2-4.7-0.8c-1.9-1-3.6-3.1-6-6.4c-1.8-2.4-3.8-5.4-4.3-6.1c-0.2-0.3-0.5-0.3-0.8-0.3l-3.8-0.1c-0.2,0-0.4,0.1-0.4,0.4
		v0.6c0,4.1,0,7.5,0.2,9.4c0.1,1.3,0.4,2.2,1.7,2.4c0.7,0.1,1.6,0.2,2.1,0.2c0.4,0,0.5,0.1,0.5,0.4c0,0.3-0.3,0.4-0.9,0.4
		c-2.5,0-5.8-0.1-6.4-0.1c-0.8,0-3.6,0.1-5.3,0.1c-0.6,0-0.9-0.1-0.9-0.4c0-0.2,0.2-0.4,0.7-0.4c0.7,0,1.2-0.1,1.6-0.2
		c0.9-0.2,1.1-1.1,1.3-2.4c0.2-1.8,0.2-5.3,0.2-9.3V450.7z M267.6,454.1c0,0.5,0.1,0.7,0.4,0.8c0.9,0.3,2.2,0.4,3.3,0.4
		c1.8,0,2.3-0.2,3.1-0.7c1.3-1,2.6-3,2.6-6.6c0-6.2-4.1-8-6.7-8c-1.1,0-1.9,0-2.3,0.2c-0.3,0.1-0.4,0.3-0.4,0.6V454.1z"/>
	<path class="st1" d="M298,450.7c0-6.7,0-7.9-0.1-9.3c-0.1-1.5-0.4-2.2-1.9-2.5c-0.4-0.1-1.1-0.1-1.7-0.1c-0.5,0-0.7-0.1-0.7-0.4
		c0-0.3,0.3-0.4,1-0.4c1.2,0,2.5,0,3.6,0c1.1,0,2.1,0.1,2.8,0.1c1.4,0,10.1,0,11,0c0.8-0.1,1.5-0.2,1.9-0.3c0.2,0,0.5-0.2,0.7-0.2
		c0.2,0,0.3,0.2,0.3,0.4c0,0.3-0.2,0.8-0.4,2.8c0,0.4-0.1,2.4-0.2,2.9c0,0.2-0.1,0.5-0.4,0.5c-0.3,0-0.4-0.2-0.4-0.6
		c0-0.3,0-1.1-0.3-1.6c-0.3-0.8-0.7-1.3-2.9-1.6c-0.7-0.1-5.3-0.2-6.2-0.2c-0.2,0-0.3,0.1-0.3,0.4v11.1c0,0.3,0,0.5,0.3,0.5
		c1,0,6,0,7-0.1c1.1-0.1,1.7-0.2,2.1-0.7c0.3-0.4,0.5-0.6,0.7-0.6c0.2,0,0.3,0.1,0.3,0.4c0,0.3-0.2,1-0.4,3.2c0,0.9-0.2,2.6-0.2,2.9
		c0,0.4,0,0.8-0.4,0.8c-0.3,0-0.4-0.2-0.4-0.4c0-0.4,0-1-0.2-1.6c-0.2-0.9-0.8-1.5-2.5-1.7c-0.8-0.1-5.2-0.1-6.2-0.1
		c-0.2,0-0.3,0.2-0.3,0.4v3.5c0,1.5,0,5.5,0,6.8c0.1,3,0.8,3.7,5.3,3.7c1.1,0,3,0,4.1-0.5c1.1-0.5,1.7-1.4,2-3.2
		c0.1-0.5,0.2-0.7,0.5-0.7c0.4,0,0.4,0.4,0.4,0.8c0,1-0.4,4-0.6,4.9c-0.3,1.1-0.7,1.1-2.4,1.1c-3.3,0-5.7-0.1-7.6-0.1
		c-1.9-0.1-3.2-0.1-4.6-0.1c-0.5,0-1.4,0-2.5,0c-1,0-2.1,0.1-3,0.1c-0.6,0-0.9-0.1-0.9-0.4c0-0.2,0.2-0.4,0.7-0.4
		c0.7,0,1.2-0.1,1.6-0.2c0.9-0.2,1.1-1.1,1.3-2.4c0.2-1.8,0.2-5.3,0.2-9.3V450.7z"/>
	<path class="st1" d="M322.7,470.6c-0.7-0.3-0.8-0.5-0.8-1.5c0-2.4,0.2-5,0.2-5.7c0-0.7,0.2-1.1,0.5-1.1c0.4,0,0.4,0.4,0.4,0.7
		c0,0.6,0.2,1.5,0.4,2.2c1,3.2,3.6,4.4,6.3,4.4c3.9,0,5.9-2.7,5.9-5c0-2.1-0.7-4.2-4.3-7l-2-1.6c-4.8-3.8-6.5-6.8-6.5-10.4
		c0-4.8,4-8.3,10.1-8.3c2.8,0,4.7,0.4,5.8,0.7c0.4,0.1,0.6,0.2,0.6,0.5c0,0.6-0.2,1.8-0.2,5.3c0,1-0.1,1.3-0.5,1.3
		c-0.3,0-0.4-0.3-0.4-0.8c0-0.4-0.2-1.8-1.1-2.9c-0.7-0.8-1.9-2.1-4.8-2.1c-3.2,0-5.2,1.9-5.2,4.5c0,2,1,3.6,4.6,6.3l1.2,0.9
		c5.3,4,7.2,7,7.2,11.2c0,2.5-1,5.6-4.1,7.6c-2.2,1.4-4.6,1.8-7,1.8C326.6,471.7,324.6,471.4,322.7,470.6"/>
	<path class="st1" d="M346.3,454.5c0-7.5,5-17.2,18.1-17.2c10.9,0,17.7,6.4,17.7,16.4c0,10-7,18-18.2,18
		C351.4,471.7,346.3,462.3,346.3,454.5 M376,455.4c0-9.8-5.7-15.9-12.8-15.9c-5,0-10.8,2.8-10.8,13.7c0,9.1,5,16.4,13.5,16.4
		C368.9,469.5,376,468,376,455.4"/>
	<path class="st1" d="M390.7,450.7c0-6.7,0-7.9-0.1-9.3c-0.1-1.5-0.4-2.2-1.9-2.5c-0.4-0.1-1.1-0.1-1.7-0.1c-0.5,0-0.7-0.1-0.7-0.4
		s0.3-0.4,1-0.4c2.3,0,5.1,0.1,6,0.1c1.5,0,4.8-0.1,6.2-0.1c2.8,0,5.7,0.3,8.1,1.9c1.2,0.8,3,3.1,3,6c0,3.2-1.4,6.2-5.8,9.8
		c3.9,4.9,6.9,8.8,9.5,11.5c2.5,2.5,4.3,2.8,4.9,3c0.5,0.1,0.9,0.1,1.2,0.1c0.3,0,0.5,0.1,0.5,0.4c0,0.4-0.3,0.4-0.8,0.4h-4.2
		c-2.5,0-3.6-0.2-4.7-0.8c-1.9-1-3.6-3.1-6-6.4c-1.7-2.4-3.8-5.4-4.3-6.1c-0.2-0.3-0.5-0.3-0.8-0.3l-3.8-0.1c-0.2,0-0.4,0.1-0.4,0.4
		v0.6c0,4.1,0,7.5,0.2,9.4c0.1,1.3,0.4,2.2,1.7,2.4c0.7,0.1,1.6,0.2,2.1,0.2c0.4,0,0.5,0.1,0.5,0.4c0,0.3-0.3,0.4-0.9,0.4
		c-2.5,0-5.8-0.1-6.4-0.1c-0.8,0-3.6,0.1-5.3,0.1c-0.6,0-0.9-0.1-0.9-0.4c0-0.2,0.2-0.4,0.7-0.4c0.7,0,1.2-0.1,1.6-0.2
		c0.9-0.2,1.1-1.1,1.3-2.4c0.2-1.8,0.2-5.3,0.2-9.3V450.7z M395.9,454.1c0,0.5,0.1,0.7,0.4,0.8c0.9,0.3,2.2,0.4,3.3,0.4
		c1.8,0,2.3-0.2,3.1-0.7c1.3-1,2.6-3,2.6-6.6c0-6.2-4.1-8-6.7-8c-1.1,0-1.9,0-2.3,0.2c-0.3,0.1-0.4,0.3-0.4,0.6V454.1z"/>
	<path class="st1" d="M428.4,440.4l-6.5,0.2c-2.5,0.1-3.6,0.3-4.3,1.3c-0.4,0.7-0.7,1.2-0.7,1.5c-0.1,0.4-0.2,0.5-0.5,0.5
		c-0.3,0-0.4-0.2-0.4-0.7c0-0.7,0.8-4.7,0.9-5c0.1-0.6,0.3-0.8,0.5-0.8c0.4,0,0.8,0.4,1.9,0.5c1.3,0.1,2.9,0.2,4.4,0.2h17.4
		c1.4,0,2.4-0.1,3-0.2c0.7-0.1,1-0.2,1.2-0.2c0.3,0,0.4,0.3,0.4,0.9c0,0.9-0.1,3.9-0.1,5.1c0,0.4-0.1,0.7-0.4,0.7
		c-0.3,0-0.4-0.2-0.5-0.9l0-0.5c-0.1-1.1-1.3-2.4-5.2-2.5l-5.5-0.1v18c0,4,0,7.5,0.2,9.4c0.1,1.2,0.4,2.2,1.7,2.4
		c0.6,0.1,1.6,0.2,2.2,0.2c0.5,0,0.7,0.1,0.7,0.4c0,0.3-0.4,0.4-0.8,0.4c-2.9,0-5.7-0.1-6.9-0.1c-1,0-3.8,0.1-5.5,0.1
		c-0.6,0-0.9-0.1-0.9-0.4c0-0.2,0.2-0.4,0.7-0.4c0.7,0,1.2-0.1,1.6-0.2c0.9-0.2,1.1-1.1,1.3-2.4c0.2-1.8,0.2-5.3,0.2-9.3V440.4z"/>
	<path class="st1" d="M451.8,470.6c-0.7-0.3-0.8-0.5-0.8-1.5c0-2.4,0.2-5,0.2-5.7c0-0.7,0.2-1.1,0.5-1.1c0.4,0,0.4,0.4,0.4,0.7
		c0,0.6,0.2,1.5,0.4,2.2c1,3.2,3.6,4.4,6.3,4.4c3.9,0,5.9-2.7,5.9-5c0-2.1-0.7-4.2-4.3-7l-2-1.6c-4.8-3.8-6.5-6.8-6.5-10.4
		c0-4.8,4-8.3,10.1-8.3c2.8,0,4.7,0.4,5.8,0.7c0.4,0.1,0.6,0.2,0.6,0.5c0,0.6-0.2,1.8-0.2,5.3c0,1-0.1,1.3-0.5,1.3
		c-0.3,0-0.4-0.3-0.4-0.8c0-0.4-0.2-1.8-1.1-2.9c-0.7-0.8-1.9-2.1-4.8-2.1c-3.2,0-5.2,1.9-5.2,4.5c0,2,1,3.6,4.6,6.3l1.2,0.9
		c5.3,4,7.2,7,7.2,11.2c0,2.5-1,5.6-4.1,7.6c-2.2,1.4-4.6,1.8-7,1.8C455.6,471.7,453.6,471.4,451.8,470.6"/>
	<path class="st1" d="M504.9,470.6c-0.7-0.3-0.8-0.5-0.8-1.5c0-2.4,0.2-5,0.2-5.7c0-0.7,0.2-1.1,0.5-1.1c0.4,0,0.4,0.4,0.4,0.7
		c0,0.6,0.2,1.5,0.4,2.2c1,3.2,3.6,4.4,6.3,4.4c3.9,0,5.9-2.7,5.9-5c0-2.1-0.7-4.2-4.3-7l-2-1.6c-4.8-3.8-6.5-6.8-6.5-10.4
		c0-4.8,4-8.3,10.1-8.3c2.8,0,4.7,0.4,5.8,0.7c0.4,0.1,0.6,0.2,0.6,0.5c0,0.6-0.2,1.8-0.2,5.3c0,1-0.1,1.3-0.5,1.3
		c-0.3,0-0.4-0.3-0.4-0.8c0-0.4-0.2-1.8-1.1-2.9c-0.7-0.8-1.9-2.1-4.8-2.1c-3.2,0-5.2,1.9-5.2,4.5c0,2,1,3.6,4.6,6.3l1.2,0.9
		c5.3,4,7.2,7,7.2,11.2c0,2.5-1,5.6-4.1,7.6c-2.2,1.4-4.6,1.8-7,1.8C508.8,471.7,506.8,471.4,504.9,470.6"/>
	<path class="st1" d="M533.3,450.7c0-6.7,0-7.9-0.1-9.3c-0.1-1.5-0.4-2.2-1.9-2.5c-0.4-0.1-1.1-0.1-1.7-0.1c-0.5,0-0.7-0.1-0.7-0.4
		c0-0.3,0.3-0.4,1-0.4c2.3,0,5.1,0.1,6.3,0.1c1.8,0,4.3-0.1,6.4-0.1c5.5,0,7.5,1.8,8.2,2.5c1,0.9,2.2,2.9,2.2,5.2
		c0,6.2-4.6,10.6-10.8,10.6c-0.2,0-0.7,0-0.9,0c-0.2,0-0.5-0.1-0.5-0.4c0-0.4,0.3-0.5,1.2-0.5c2.5,0,5.9-2.8,5.9-7.2
		c0-1.4-0.1-4.4-2.6-6.6c-1.6-1.4-3.4-1.7-4.4-1.7c-0.7,0-1.3,0-1.7,0.2c-0.2,0.1-0.4,0.4-0.4,0.8v17.5c0,4,0,7.5,0.2,9.4
		c0.1,1.2,0.4,2.2,1.7,2.4c0.6,0.1,1.6,0.2,2.2,0.2c0.5,0,0.7,0.1,0.7,0.4c0,0.3-0.4,0.4-0.8,0.4c-2.9,0-5.7-0.1-6.8-0.1
		c-1,0-3.8,0.1-5.5,0.1c-0.6,0-0.9-0.1-0.9-0.4c0-0.2,0.2-0.4,0.7-0.4c0.7,0,1.2-0.1,1.6-0.2c0.9-0.2,1.1-1.1,1.3-2.4
		c0.2-1.8,0.2-5.3,0.2-9.3V450.7z"/>
	<path class="st1" d="M561.6,459.7c-0.2,0-0.3,0.1-0.4,0.4l-2.4,6.3c-0.4,1.1-0.7,2.1-0.7,2.7c0,0.8,0.4,1.4,1.8,1.4h0.7
		c0.5,0,0.7,0.1,0.7,0.4c0,0.3-0.3,0.4-0.7,0.4c-1.4,0-3.3-0.1-4.7-0.1c-0.5,0-2.9,0.1-5.2,0.1c-0.6,0-0.8-0.1-0.8-0.4
		c0-0.3,0.2-0.4,0.5-0.4c0.4,0,1,0,1.4-0.1c2-0.3,2.8-1.8,3.7-3.9l11-27.5c0.5-1.3,0.8-1.8,1.2-1.8c0.4,0,0.7,0.4,1.1,1.4
		c1.1,2.4,8.1,20.3,10.9,27c1.7,3.9,2.9,4.6,3.9,4.8c0.7,0.1,1.3,0.2,1.8,0.2c0.4,0,0.6,0,0.6,0.4c0,0.3-0.4,0.4-2,0.4
		c-1.6,0-4.8,0-8.3-0.1c-0.8,0-1.3,0-1.3-0.3c0-0.3,0.2-0.4,0.6-0.4c0.3-0.1,0.6-0.5,0.4-1l-3.5-9.3c-0.1-0.2-0.2-0.3-0.4-0.3H561.6
		z M570.5,457.5c0.2,0,0.3-0.1,0.2-0.3l-3.9-10.8c0-0.2-0.1-0.4-0.2-0.4c-0.1,0-0.2,0.2-0.3,0.4l-4,10.8c0,0.2,0,0.3,0.2,0.3H570.5z
		"/>
	<path class="st1" d="M588.5,470.6c-0.7-0.3-0.8-0.5-0.8-1.5c0-2.4,0.2-5,0.2-5.7c0-0.7,0.2-1.1,0.5-1.1c0.4,0,0.4,0.4,0.4,0.7
		c0,0.6,0.2,1.5,0.4,2.2c1,3.2,3.6,4.4,6.3,4.4c3.9,0,5.9-2.7,5.9-5c0-2.1-0.7-4.2-4.3-7l-2-1.6c-4.8-3.8-6.5-6.8-6.5-10.4
		c0-4.8,4-8.3,10.1-8.3c2.8,0,4.7,0.4,5.8,0.7c0.4,0.1,0.6,0.2,0.6,0.5c0,0.6-0.2,1.8-0.2,5.3c0,1-0.1,1.3-0.5,1.3
		c-0.3,0-0.4-0.3-0.4-0.8c0-0.4-0.2-1.8-1.1-2.9c-0.7-0.8-1.9-2.1-4.8-2.1c-3.2,0-5.2,1.9-5.2,4.5c0,2,1,3.6,4.6,6.3l1.2,0.9
		c5.3,4,7.2,7,7.2,11.2c0,2.5-1,5.6-4.1,7.6c-2.2,1.4-4.6,1.8-7,1.8C592.4,471.7,590.4,471.4,588.5,470.6"/>
	<rect x="238.9" y="450.7" class="st1" width="7.1" height="7.1"/>
	<rect x="483.7" y="450.7" class="st1" width="7.1" height="7.1"/>
	<rect x="20.6" y="414.8" class="st1" width="600" height="3.5"/>
	<path class="st1" d="M45.5,371.5c-0.5,0-0.6,0.2-0.8,0.7l-5,12.7c-0.9,2.3-1.4,4.5-1.4,5.7c0,1.7,0.8,2.9,3.7,2.9h1.4
		c1.1,0,1.4,0.2,1.4,0.7c0,0.7-0.6,0.9-1.6,0.9c-3,0-7-0.3-9.8-0.3c-1,0-6.1,0.3-10.9,0.3c-1.2,0-1.8-0.2-1.8-0.9
		c0-0.6,0.4-0.7,1.1-0.7c0.8,0,2.1-0.1,2.9-0.2c4.3-0.6,6-3.7,7.9-8.3l23.3-57.5c1.1-2.7,1.7-3.7,2.6-3.7c0.8,0,1.4,0.8,2.3,3
		c2.2,5.1,17.1,42.2,23,56.3c3.5,8.3,6.2,9.6,8.2,10.1c1.4,0.3,2.8,0.4,3.9,0.4c0.7,0,1.2,0.1,1.2,0.7c0,0.7-0.8,0.9-4.3,0.9
		c-3.3,0-10.1,0-17.5-0.2c-1.7-0.1-2.8-0.1-2.8-0.7c0-0.6,0.4-0.7,1.3-0.8c0.6-0.2,1.3-1,0.8-2.1l-7.4-19.1
		c-0.2-0.5-0.5-0.6-0.9-0.6H45.5z M64.4,366.8c0.5,0,0.6-0.3,0.5-0.6l-8.3-22.8c-0.1-0.4-0.2-0.8-0.5-0.8c-0.3,0-0.5,0.5-0.6,0.8
		L47,366.2c-0.1,0.4,0,0.6,0.4,0.6H64.4z"/>
	<path class="st1" d="M116.9,382.5c0.2,7.2,1.4,9.6,3.2,10.3c1.6,0.6,3.3,0.6,4.8,0.6c1,0,1.6,0.2,1.6,0.7c0,0.7-0.8,0.9-2.1,0.9
		c-6,0-9.7-0.3-11.5-0.3c-0.8,0-5.2,0.3-10,0.3c-1.2,0-2-0.1-2-0.9c0-0.6,0.6-0.7,1.5-0.7c1.2,0,2.9-0.1,4.2-0.5
		c2.4-0.7,2.8-3.4,2.9-11.5l0.8-54.6c0-1.9,0.3-3.2,1.2-3.2c1,0,1.9,1.2,3.4,2.9c1.1,1.2,15.2,16,28.7,29.5
		c6.3,6.3,18.8,19.7,20.4,21.1h0.5l-0.9-41.6c-0.1-5.7-0.9-7.4-3.2-8.3c-1.4-0.6-3.6-0.6-4.9-0.6c-1.1,0-1.5-0.3-1.5-0.8
		c0-0.7,1-0.8,2.4-0.8c4.8,0,9.3,0.3,11.2,0.3c1,0,4.5-0.3,9.1-0.3c1.2,0,2.1,0.1,2.1,0.8c0,0.6-0.6,0.8-1.7,0.8
		c-0.9,0-1.7,0-2.8,0.3c-2.6,0.7-3.3,2.7-3.4,7.9l-1,58.5c0,2-0.4,2.9-1.2,2.9c-1,0-2.1-1-3.2-2c-5.8-5.6-17.7-17.7-27.3-27.3
		c-10.1-10-20.4-21.3-22.1-23.1h-0.3L116.9,382.5z"/>
	<path class="st1" d="M198.6,371.5c-0.5,0-0.6,0.2-0.8,0.7l-5,12.7c-0.9,2.3-1.4,4.5-1.4,5.7c0,1.7,0.8,2.9,3.7,2.9h1.4
		c1.1,0,1.4,0.2,1.4,0.7c0,0.7-0.6,0.9-1.6,0.9c-3,0-7-0.3-9.8-0.3c-1,0-6.1,0.3-10.9,0.3c-1.2,0-1.8-0.2-1.8-0.9
		c0-0.6,0.4-0.7,1.1-0.7c0.8,0,2.1-0.1,2.9-0.2c4.3-0.6,6-3.7,7.9-8.3l23.3-57.5c1.1-2.7,1.7-3.7,2.6-3.7c0.8,0,1.4,0.8,2.3,3
		c2.2,5.1,17.1,42.2,23,56.3c3.5,8.3,6.2,9.6,8.2,10.1c1.4,0.3,2.8,0.4,3.9,0.4c0.7,0,1.2,0.1,1.2,0.7c0,0.7-0.8,0.9-4.3,0.9
		c-3.3,0-10.1,0-17.5-0.2c-1.7-0.1-2.8-0.1-2.8-0.7c0-0.6,0.4-0.7,1.3-0.8c0.6-0.2,1.3-1,0.8-2.1l-7.4-19.1
		c-0.2-0.5-0.5-0.6-0.9-0.6H198.6z M217.5,366.8c0.5,0,0.6-0.3,0.5-0.6l-8.3-22.8c-0.1-0.4-0.2-0.8-0.5-0.8c-0.3,0-0.5,0.5-0.6,0.8
		l-8.5,22.7c-0.1,0.4,0,0.6,0.4,0.6H217.5z"/>
	<path class="st1" d="M270.2,382.5c0.2,7.2,1.4,9.6,3.2,10.3c1.6,0.6,3.3,0.6,4.8,0.6c1,0,1.6,0.2,1.6,0.7c0,0.7-0.8,0.9-2.1,0.9
		c-6,0-9.7-0.3-11.5-0.3c-0.8,0-5.2,0.3-10,0.3c-1.2,0-2-0.1-2-0.9c0-0.6,0.6-0.7,1.5-0.7c1.2,0,2.9-0.1,4.2-0.5
		c2.4-0.7,2.8-3.4,2.9-11.5l0.8-54.6c0-1.9,0.3-3.2,1.2-3.2c1,0,1.9,1.2,3.4,2.9c1.1,1.2,15.2,16,28.7,29.5
		c6.3,6.3,18.8,19.7,20.4,21.1h0.5l-0.9-41.6c-0.1-5.7-0.9-7.4-3.2-8.3c-1.4-0.6-3.6-0.6-4.9-0.6c-1.1,0-1.5-0.3-1.5-0.8
		c0-0.7,1-0.8,2.4-0.8c4.8,0,9.3,0.3,11.2,0.3c1,0,4.5-0.3,9.1-0.3c1.2,0,2.1,0.1,2.1,0.8c0,0.6-0.6,0.8-1.7,0.8
		c-0.9,0-1.7,0-2.8,0.3c-2.6,0.7-3.3,2.7-3.4,7.9l-1,58.5c0,2-0.4,2.9-1.2,2.9c-1,0-2.1-1-3.2-2c-5.8-5.6-17.7-17.7-27.3-27.3
		c-10.1-10-20.4-21.3-22.1-23.1h-0.3L270.2,382.5z"/>
	<path class="st1" d="M362.3,330.2l-13.8,0.4c-5.4,0.2-7.6,0.6-9,2.7c-0.9,1.4-1.4,2.5-1.6,3.2c-0.2,0.7-0.5,1.1-1,1.1
		c-0.6,0-0.8-0.5-0.8-1.5c0-1.5,1.8-9.9,1.9-10.7c0.3-1.2,0.6-1.8,1.1-1.8c0.7,0,1.7,0.9,4,1.1c2.7,0.3,6.2,0.5,9.3,0.5h36.7
		c3,0,5-0.3,6.4-0.5c1.4-0.3,2.1-0.5,2.5-0.5c0.6,0,0.7,0.6,0.7,1.9c0,1.9-0.3,8.3-0.3,10.8c-0.1,0.9-0.3,1.5-0.8,1.5
		c-0.7,0-0.9-0.5-1-1.9l-0.1-1c-0.2-2.4-2.7-5-10.9-5.2l-11.7-0.3v38c0,8.5,0,15.9,0.5,19.8c0.3,2.6,0.8,4.6,3.6,5
		c1.3,0.2,3.3,0.4,4.7,0.4c1,0,1.5,0.3,1.5,0.7c0,0.6-0.7,0.9-1.8,0.9c-6.1,0-12-0.3-14.6-0.3c-2.1,0-8,0.3-11.7,0.3
		c-1.2,0-1.9-0.3-1.9-0.9c0-0.5,0.4-0.7,1.5-0.7c1.4,0,2.5-0.2,3.3-0.4c1.9-0.4,2.4-2.4,2.7-5.1c0.5-3.9,0.5-11.2,0.5-19.7V330.2z"
		/>
	<path class="st1" d="M413,371.5c-0.5,0-0.6,0.2-0.8,0.7l-5,12.7c-0.9,2.3-1.4,4.5-1.4,5.7c0,1.7,0.8,2.9,3.7,2.9h1.4
		c1.1,0,1.4,0.2,1.4,0.7c0,0.7-0.6,0.9-1.6,0.9c-3,0-7-0.3-9.8-0.3c-1,0-6.1,0.3-10.9,0.3c-1.2,0-1.8-0.2-1.8-0.9
		c0-0.6,0.4-0.7,1.1-0.7c0.8,0,2.1-0.1,2.9-0.2c4.3-0.6,6-3.7,7.9-8.3l23.3-57.5c1.1-2.7,1.7-3.7,2.6-3.7c0.8,0,1.4,0.8,2.3,3
		c2.2,5.1,17.1,42.2,23,56.3c3.5,8.3,6.2,9.6,8.2,10.1c1.4,0.3,2.8,0.4,3.9,0.4c0.7,0,1.2,0.1,1.2,0.7c0,0.7-0.8,0.9-4.3,0.9
		c-3.3,0-10.1,0-17.5-0.2c-1.7-0.1-2.8-0.1-2.8-0.7c0-0.6,0.4-0.7,1.3-0.8c0.6-0.2,1.3-1,0.8-2.1l-7.4-19.1
		c-0.2-0.5-0.5-0.6-0.9-0.6H413z M432,366.8c0.5,0,0.6-0.3,0.5-0.6l-8.3-22.8c-0.1-0.4-0.2-0.8-0.5-0.8c-0.3,0-0.5,0.5-0.6,0.8
		l-8.5,22.7c-0.1,0.4,0,0.6,0.4,0.6H432z"/>
	<path class="st1" d="M476.5,351.9c0-14.1,0-16.7-0.2-19.7c-0.2-3.1-0.9-4.6-4-5.3c-0.7-0.2-2.3-0.3-3.6-0.3c-1,0-1.6-0.2-1.6-0.8
		c0-0.6,0.6-0.8,2-0.8c4.9,0,10.8,0.3,12.7,0.3c3.2,0,10.2-0.3,13.1-0.3c5.8,0,12.1,0.6,17.1,4c2.6,1.8,6.3,6.5,6.3,12.7
		c0,6.9-2.9,13.2-12.2,20.8c8.3,10.4,14.6,18.6,20.1,24.4c5.2,5.4,9,6,10.4,6.3c1,0.2,1.9,0.3,2.6,0.3c0.7,0,1.1,0.3,1.1,0.7
		c0,0.7-0.6,0.9-1.8,0.9h-8.8c-5.2,0-7.5-0.5-9.9-1.8c-4-2.1-7.5-6.5-12.7-13.6c-3.7-5.1-8-11.4-9.2-12.8c-0.5-0.6-1-0.6-1.7-0.6
		l-8.1-0.2c-0.5,0-0.7,0.2-0.7,0.7v1.3c0,8.6,0,15.9,0.5,19.8c0.3,2.7,0.8,4.7,3.6,5.1c1.4,0.2,3.4,0.4,4.5,0.4
		c0.7,0,1.1,0.3,1.1,0.7c0,0.6-0.6,0.9-1.9,0.9c-5.4,0-12.2-0.3-13.6-0.3c-1.8,0-7.6,0.3-11.3,0.3c-1.2,0-1.9-0.3-1.9-0.9
		c0-0.5,0.4-0.7,1.5-0.7c1.4,0,2.5-0.2,3.3-0.4c1.9-0.4,2.3-2.4,2.7-5.1c0.5-3.9,0.5-11.2,0.5-19.7V351.9z M487.5,359.2
		c0,1,0.2,1.4,0.8,1.7c1.9,0.6,4.7,0.9,7,0.9c3.7,0,4.9-0.4,6.6-1.6c2.8-2,5.5-6.3,5.5-13.9c0-13.2-8.7-17-14.2-17
		c-2.3,0-4,0.1-4.9,0.4c-0.6,0.2-0.8,0.6-0.8,1.3V359.2z"/>
	<path class="st1" d="M569.2,371.5c-0.5,0-0.6,0.2-0.8,0.7l-5,12.7c-0.9,2.3-1.4,4.5-1.4,5.7c0,1.7,0.8,2.9,3.7,2.9h1.4
		c1.1,0,1.4,0.2,1.4,0.7c0,0.7-0.6,0.9-1.6,0.9c-3,0-7-0.3-9.8-0.3c-1,0-6.1,0.3-10.9,0.3c-1.2,0-1.8-0.2-1.8-0.9
		c0-0.6,0.4-0.7,1.1-0.7c0.8,0,2.1-0.1,2.9-0.2c4.3-0.6,6-3.7,7.9-8.3l23.3-57.5c1.1-2.7,1.7-3.7,2.6-3.7c0.8,0,1.4,0.8,2.3,3
		c2.2,5.1,17.1,42.2,23,56.3c3.5,8.3,6.2,9.6,8.2,10.1c1.4,0.3,2.8,0.4,3.9,0.4c0.7,0,1.2,0.1,1.2,0.7c0,0.7-0.8,0.9-4.3,0.9
		c-3.3,0-10.1,0-17.5-0.2c-1.7-0.1-2.8-0.1-2.8-0.7c0-0.6,0.4-0.7,1.3-0.8c0.6-0.2,1.3-1,0.8-2.1l-7.4-19.1
		c-0.2-0.5-0.5-0.6-0.9-0.6H569.2z M588.1,366.8c0.5,0,0.6-0.3,0.5-0.6l-8.3-22.8c-0.1-0.4-0.2-0.8-0.5-0.8c-0.3,0-0.5,0.5-0.6,0.8
		l-8.5,22.7c-0.1,0.4,0,0.6,0.4,0.6H588.1z"/>
</g>
</svg>
